<svg width="43" height="43" viewBox="0 0 43 43" fill="none" xmlns="http://www.w3.org/2000/svg">
<circle cx="21.5" cy="21.5" r="21" fill="black" stroke="#A4A189"/>
<g clip-path="url(#clip0_6775_641)">
<path d="M18.2138 12.9489C13.0877 14.9049 12.6183 19.9348 11.1349 22.2821C9.65154 24.6294 6.23414 25.952 6.70357 27.1629C7.17299 28.3738 10.5904 27.0698 13.2943 27.8522C15.9981 28.6346 19.6784 32.0252 24.8045 30.0691C26.0472 29.5933 27.171 28.8556 28.0982 27.9067C29.0254 26.9579 29.7339 25.8206 30.1747 24.5735C30.2195 24.4722 30.2219 24.3574 30.1814 24.2543C30.1409 24.1513 30.0608 24.0684 29.9587 24.0239C29.8567 23.9794 29.7409 23.977 29.6371 24.0172C29.5332 24.0574 29.4496 24.1369 29.4048 24.2381C28.8752 25.2977 28.0911 26.2117 27.1214 26.8996C26.1518 27.5875 25.0265 28.0282 23.8447 28.1828C22.6629 28.3374 21.4609 28.2012 20.3447 27.7862C19.2284 27.3712 18.2323 26.6901 17.4439 25.803C16.9878 25.2949 16.6083 24.7239 16.3173 24.1077C16.2234 23.9401 16.1483 23.7538 16.0732 23.5861C15.9981 23.4185 15.9418 23.2135 15.8855 23.0273C17.4439 22.3193 19.209 21.5555 21.2369 20.7917C23.2648 20.028 25.011 19.4132 26.6071 18.9288C27.6961 18.5935 28.6913 18.3141 29.5738 18.0905L29.7804 18.0533C29.8451 18.0355 29.9142 18.0429 29.9736 18.0741C30.0329 18.1053 30.078 18.1578 30.0996 18.2209C30.133 18.2924 30.1582 18.3674 30.1747 18.4445C30.3582 18.9404 30.4965 19.4516 30.5878 19.9721C30.5964 20.0219 30.6169 20.069 30.6476 20.1094C30.6783 20.1498 30.7183 20.1823 30.7643 20.2042C30.8102 20.226 30.8608 20.2367 30.9118 20.2352C30.9627 20.2337 31.0126 20.2201 31.0572 20.1956C31.7895 19.8044 32.4655 19.4132 33.0663 19.0592C35.3195 17.6807 36.5588 16.507 36.2959 15.855C36.0331 15.203 34.3431 15.1471 31.7519 15.6128C30.9257 15.7619 30.0057 15.9668 29.0293 16.2276L28.5223 16.358C27.6773 16.5816 26.8136 16.8237 25.9123 17.1032C24.2224 17.6248 22.401 18.2582 20.5234 18.9661C18.6457 19.674 17.1247 20.326 15.585 21.0153C15.5775 19.8331 15.8616 18.6669 16.4127 17.6187C16.9637 16.5704 17.7648 15.6718 18.7462 15.0012C19.7277 14.3306 20.8595 13.9085 22.0432 13.7715C23.2268 13.6346 24.4262 13.7871 25.5368 14.2156C25.6177 14.2431 25.7047 14.2472 25.7878 14.2274C25.871 14.2076 25.9467 14.1648 26.0062 14.1039C26.0514 14.0576 26.0849 14.0014 26.1041 13.9398C26.1233 13.8782 26.1276 13.813 26.1166 13.7495C26.1056 13.686 26.0797 13.6259 26.041 13.5742C26.0022 13.5225 25.9517 13.4806 25.8935 13.4518C24.7277 12.8181 23.4363 12.4447 22.1097 12.3578C20.7832 12.2709 19.4535 12.4726 18.2138 12.9489Z" fill="#A4A189"/>
</g>
<defs>
<clipPath id="clip0_6775_641">
<rect width="29.6675" height="18.3311" fill="white" transform="translate(6.66626 12.3345)"/>
</clipPath>
</defs>
</svg>
