<svg width="43" height="43" viewBox="0 0 43 43" fill="none" xmlns="http://www.w3.org/2000/svg">
<circle cx="21.5" cy="21.5" r="21" fill="black" stroke="#A4A189"/>
<g clip-path="url(#clip0_6775_638)">
<path d="M27.2176 16.6195C26.8092 16.352 26.2841 16.352 25.8174 16.6195L22.5502 18.8264L20.3331 20.2308L17.1243 22.4378C16.7159 22.7053 16.1908 22.7053 15.724 22.4378L13.2153 20.699C12.8069 20.4315 12.5152 19.8965 12.5152 19.2946V15.9507C12.5152 15.4157 12.7486 14.8807 13.2153 14.5463L15.724 12.8744C16.1324 12.6069 16.6575 12.6069 17.1243 12.8744L19.633 14.6132C20.0414 14.8807 20.3331 15.4157 20.3331 16.0176V18.2245L22.5502 16.7533V14.4794C22.5502 13.9444 22.3168 13.4094 21.8501 13.075L17.1826 9.93183C16.7742 9.66432 16.2491 9.66432 15.7824 9.93183L10.9983 13.1419C10.5315 13.4094 10.2982 13.9444 10.2982 14.4794V20.7659C10.2982 21.3009 10.5315 21.8359 10.9983 22.1703L15.724 25.3135C16.1324 25.581 16.6575 25.581 17.1243 25.3135L20.3331 23.1734L22.5502 21.7021L25.759 19.5621C26.1674 19.2946 26.6925 19.2946 27.1593 19.5621L29.668 21.234C30.0764 21.5015 30.3681 22.0365 30.3681 22.6384V25.9822C30.3681 26.5172 30.1348 27.0523 29.668 27.3866L27.2176 29.0586C26.8092 29.3261 26.2841 29.3261 25.8174 29.0586L23.3086 27.3866C22.9002 27.1191 22.6085 26.5841 22.6085 25.9822V23.8422L20.3915 25.3135V27.5204C20.3915 28.0554 20.6249 28.5904 21.0916 28.9248L25.8174 32.068C26.2258 32.3355 26.7509 32.3355 27.2176 32.068L31.9434 28.9248C32.3518 28.6573 32.6435 28.1223 32.6435 27.5204V21.1671C32.6435 20.6321 32.4101 20.0971 31.9434 19.7627L27.2176 16.6195Z" fill="#A4A189"/>
</g>
<defs>
<clipPath id="clip0_6775_638">
<rect width="22.4037" height="22.4037" fill="white" transform="translate(10.2982 9.7981)"/>
</clipPath>
</defs>
</svg>
