<svg width="43" height="43" viewBox="0 0 43 43" fill="none" xmlns="http://www.w3.org/2000/svg">
<circle cx="21.5" cy="21.5" r="21" fill="black" stroke="#A4A189"/>
<path d="M21.601 35.3756C29.3329 35.3756 35.601 29.1076 35.601 21.3756C35.601 13.6436 29.3329 7.37561 21.601 7.37561C13.869 7.37561 7.60095 13.6436 7.60095 21.3756C7.60095 29.1076 13.869 35.3756 21.601 35.3756Z" fill="#A4A189"/>
<path d="M21.9705 29.5964C19.9433 29.5964 18.2745 29.1596 16.9865 28.2748C15.7993 27.4684 15.0377 26.3484 14.7129 24.9036C14.6681 24.6796 14.8025 24.4668 15.0265 24.4108L17.8377 23.6828C18.0841 23.6156 18.3193 23.7724 18.3865 24.0188C18.5321 24.5452 18.7337 24.9708 19.0025 25.2956C19.3609 25.71 19.7865 26.0124 20.2905 26.2028C20.8169 26.3708 21.3769 26.4492 21.9817 26.4492C22.9001 26.4492 23.5833 26.2924 24.0201 25.9788C24.4569 25.6428 24.6809 25.2396 24.6809 24.758C24.6809 24.2764 24.4681 23.9068 24.0537 23.6604C23.6393 23.3916 22.9673 23.1676 22.0489 22.9996L21.1753 22.8428C20.0889 22.63 19.0921 22.35 18.1961 21.9916C17.3001 21.6108 16.5721 21.1068 16.0345 20.4572C15.4857 19.8076 15.2169 18.9676 15.2169 17.9484C15.2169 16.4028 15.7769 15.2156 16.9081 14.398C18.0393 13.558 19.5177 13.1436 21.3657 13.1436C23.1017 13.1436 24.5465 13.5356 25.7001 14.3084C26.7193 15.0028 27.4361 15.8764 27.8281 16.9516C27.9065 17.1756 27.7833 17.4108 27.5481 17.478L24.7369 18.3404C24.4905 18.4188 24.2329 18.262 24.1545 18.0156C23.9641 17.4556 23.6617 17.0524 23.2473 16.7836C22.7433 16.4476 22.1161 16.2796 21.3657 16.2796C20.6153 16.2796 20.0329 16.414 19.6409 16.6828C19.2489 16.9292 19.0473 17.2876 19.0473 17.7468C19.0473 18.2508 19.2601 18.6204 19.6745 18.878C20.0889 19.1132 20.6601 19.2812 21.3657 19.4156L22.2393 19.5724C23.4153 19.7852 24.4681 20.0652 25.4089 20.4236C26.3721 20.7596 27.1225 21.2524 27.6713 21.902C28.2313 22.5292 28.5225 23.3916 28.5225 24.478C28.5225 26.1132 27.9289 27.3788 26.7305 28.2748C25.5545 29.1484 23.9753 29.5964 21.9929 29.5964H21.9705Z" fill="black"/>
</svg>
