<?xml version="1.0" standalone="no"?>
<!DOCTYPE svg PUBLIC "-//W3C//DTD SVG 20010904//EN"
 "http://www.w3.org/TR/2001/REC-SVG-20010904/DTD/svg10.dtd">
<svg version="1.0" xmlns="http://www.w3.org/2000/svg"
 width="1224.000000pt" height="204.000000pt" viewBox="0 0 1224.000000 204.000000"
 preserveAspectRatio="xMidYMid meet">
<metadata>
Created by potrace 1.16, written by Peter Selinger 2001-2019
</metadata>
<g transform="translate(0.000000,204.000000) scale(0.100000,-0.100000)"
fill="#000000" stroke="none">
<path d="M3092 1938 c-14 -14 -990 -18 -1912 -9 -449 5 -1078 -5 -1140 -18
l-35 -7 -3 -952 -2 -952 6120 0 6120 0 0 390 0 390 -3798 0 c-3348 0 -3804 2
-3849 15 -57 17 -54 14 -562 500 -179 170 -383 366 -454 434 -179 170 -202
179 -449 181 -5 0 -8 9 -8 20 0 23 -10 26 -28 8z"/>
</g>
</svg>
